<svg width="89" height="89" viewBox="0 0 89 89" fill="none" xmlns="http://www.w3.org/2000/svg">
<g clip-path="url(#clip0_152_20)">
<path d="M72.3128 46.6212L61.1878 57.4792M40.792 70.4583C32.7614 62.5085 24.7266 54.5628 16.6878 46.6212C14.8534 44.836 13.4084 42.6904 12.4438 40.3193C11.4793 37.9483 11.0162 35.4033 11.0836 32.8444C11.151 30.2856 11.7475 27.7685 12.8355 25.4515C13.9235 23.1346 15.4794 21.068 17.4054 19.3819C19.3313 17.6958 21.5855 16.4267 24.0259 15.6546C26.4664 14.8825 29.0403 14.6241 31.5856 14.8956C34.1308 15.1671 36.5923 15.9627 38.815 17.2323C41.0377 18.5018 42.9734 20.2178 44.5003 22.2722C46.0339 20.2327 47.9719 18.5317 50.193 17.2756C52.4142 16.0196 54.8707 15.2355 57.4088 14.9725C59.9469 14.7094 62.512 14.9731 64.9435 15.747C67.3751 16.5209 69.6207 17.7884 71.5399 19.4701C73.459 21.1518 75.0104 23.2115 76.0969 25.5203C77.1834 27.8292 77.7817 30.3374 77.8542 32.8881C77.9268 35.4388 77.4721 37.977 76.5186 40.3439C75.5651 42.7107 74.1333 44.8553 72.3128 46.6434" stroke="#00B341" stroke-width="6.75" stroke-linecap="round" stroke-linejoin="round"/>
<path d="M55.625 70.4577L63.0417 77.8743L77.875 63.041" stroke="#00B341" stroke-width="6.75" stroke-linecap="round" stroke-linejoin="round"/>
</g>
<defs>
<clipPath id="clip0_152_20">
<rect width="89" height="89" fill="white"/>
</clipPath>
</defs>
</svg>
