<svg width="623" height="623" viewBox="0 0 623 623" fill="none" xmlns="http://www.w3.org/2000/svg">
<rect width="623" height="623" fill="white"/>
<path d="M110.4 460.544C88.912 460.544 73.816 454.152 65.112 441.368C62.12 437.288 60.624 431.984 60.624 425.456C60.624 418.112 62.936 411.72 67.56 406.28C73 400.024 79.8 396.896 87.96 396.896C93.4 396.896 97.752 398.8 101.016 402.608C104.008 405.6 105.504 409.68 105.504 414.848C105.504 421.376 103.192 426.68 98.568 430.76C93.944 434.568 89.048 436.472 83.88 436.472C79.256 436.472 75.04 434.84 71.232 431.576C75.856 441.912 84.152 447.08 96.12 447.08C124.136 447.08 150.384 428.856 174.864 392.408C181.12 383.432 187.24 374.048 193.224 364.256C199.208 354.192 205.192 343.72 211.176 332.84C216.616 322.504 222.056 312.168 227.496 301.832C232.936 291.496 238.376 281.16 243.816 270.824C266.12 228.664 290.736 203.64 317.664 195.752C307.328 194.392 296.992 192.896 286.656 191.264C276.592 189.632 266.392 188 256.056 186.368C243.816 184.464 232.528 183.104 222.192 182.288C212.128 181.472 203.152 181.064 195.264 181.064C163.168 181.064 137.192 187.728 117.336 201.056C105.912 208.672 96.8 217.92 90 228.8C82.928 239.952 79.392 250.696 79.392 261.032C79.392 284.968 95.44 296.936 127.536 296.936C138.416 296.936 149.296 294.896 160.176 290.816C171.056 286.464 182.208 280.344 193.632 272.456C203.152 265.384 211.992 257.496 220.152 248.792C228.312 239.816 235.52 229.888 241.776 219.008C243.136 216.832 244.904 215.744 247.08 215.744C250.344 215.744 251.296 216.968 249.936 219.416C244.496 231.928 237.832 243.352 229.944 253.688C222.056 263.752 212.808 272.728 202.2 280.616C180.44 296.392 156.368 304.28 129.984 304.28C118.288 304.28 107.816 302.784 98.568 299.792C89.32 296.528 81.568 291.632 75.312 285.104C64.976 274.224 59.808 261.168 59.808 245.936C59.808 232.608 63.888 219.688 72.048 207.176C80.208 194.392 91.768 184.192 106.728 176.576C131.208 164.608 158.272 158.624 187.92 158.624C198.528 158.624 211.312 159.576 226.272 161.48C241.232 163.384 258.368 166.24 277.68 170.048C303.52 175.216 324.736 179.024 341.328 181.472C357.92 183.92 369.888 185.144 377.232 185.144C393.28 185.144 406.2 182.288 415.992 176.576C417.624 175.76 418.984 175.352 420.072 175.352C421.704 175.352 422.52 176.44 422.52 178.616C422.52 180.52 421.432 182.152 419.256 183.512C401.304 195.752 378.592 201.056 351.12 199.424L338.064 198.2C311.952 201.192 290.328 223.768 273.192 265.928C250.344 321.688 236.744 353.784 232.392 362.216C214.168 397.576 192.544 424.232 167.52 442.184C150.384 454.424 131.344 460.544 110.4 460.544ZM296.088 445.856C305.336 424.64 318.528 394.312 335.664 354.872C353.072 315.16 374.56 266.472 400.128 208.808C400.4 207.992 400.536 207.176 400.536 206.36C400.808 205.544 400.944 204.728 400.944 203.912C400.944 200.104 399.312 196.024 396.048 191.672H418.08C425.696 191.672 429.504 193.44 429.504 196.976C429.504 198.88 428.688 201.736 427.056 205.544C418.624 223.768 407.744 247.704 394.416 277.352C381.088 307 365.176 342.36 346.68 383.432C350.76 377.72 355.656 371.872 361.368 365.888C367.08 359.904 373.472 353.784 380.544 347.528C385.44 342.904 390.88 338.552 396.864 334.472C402.848 330.12 409.376 326.04 416.448 322.232C432.496 313.256 444.328 308.768 451.944 308.768C453.848 308.768 455.208 308.904 456.024 309.176C451.672 316.792 447.592 324.136 443.784 331.208C440.248 338.28 436.848 344.944 433.584 351.2C417.808 381.664 408.968 402.744 407.064 414.44C406.248 418.52 405.84 422.056 405.84 425.048C405.84 432.392 408.56 436.064 414 436.064C421.344 436.064 431.272 426.952 443.784 408.728L449.904 412.4C435.76 433.888 421.752 444.632 407.88 444.632C390.744 444.632 382.176 435.792 382.176 418.112C382.176 403.696 391.016 382.344 408.696 354.056C411.416 349.704 412.776 346.032 412.776 343.04C412.776 339.776 411.28 338.144 408.288 338.144C405.296 338.144 401.352 339.776 396.456 343.04C391.832 346.032 386.256 350.52 379.728 356.504C369.392 366.024 359.6 377.584 350.352 391.184C341.376 404.512 332.944 419.88 325.056 437.288C323.152 441.368 318.8 443.544 312 443.816C303.024 444.36 297.72 445.04 296.088 445.856ZM439.229 456.872C433.517 456.872 428.757 454.968 424.949 451.16C424.133 450.344 423.725 449.392 423.725 448.304C423.725 445.04 425.357 443.408 428.621 443.408C429.709 443.408 430.661 443.816 431.477 444.632C433.381 446.808 436.237 447.896 440.045 447.896C441.677 447.896 443.581 447.624 445.757 447.08C447.661 446.536 449.837 445.72 452.285 444.632C459.357 441.096 466.293 435.248 473.093 427.088C480.165 418.656 486.829 407.776 493.085 394.448C499.341 381.664 503.829 369.832 506.549 358.952C509.269 347.8 510.629 337.6 510.629 328.352C510.629 321.008 508.181 317.336 503.285 317.336C497.845 317.336 491.589 323.048 484.517 334.472L478.397 332.024C488.733 314.888 499.613 306.32 511.037 306.32C525.181 306.32 532.253 315.704 532.253 334.472C532.253 337.464 531.981 341 531.437 345.08C531.165 348.888 530.485 353.104 529.397 357.728C533.205 350.656 537.149 343.992 541.229 337.736C545.581 331.208 550.069 324.952 554.693 318.968C564.213 307.272 571.965 300.608 577.949 298.976C579.037 298.704 579.989 298.568 580.805 298.568C581.621 298.568 582.301 298.568 582.845 298.568C590.461 298.568 594.269 302.376 594.269 309.992C594.269 314.072 592.501 317.472 588.965 320.192C585.429 322.912 581.757 324.272 577.949 324.272C572.509 324.272 569.109 321.96 567.749 317.336C539.189 345.08 524.909 374.184 524.909 404.648C524.909 424.232 529.805 434.024 539.597 434.024C544.493 434.024 549.661 431.848 555.101 427.496C560.813 422.872 566.661 416.072 572.645 407.096L578.765 410.36C564.893 432.12 549.117 443 531.437 443C521.917 443 514.301 438.512 508.589 429.536C503.965 421.92 501.653 413.76 501.653 405.056C501.653 403.152 501.653 401.52 501.653 400.16C501.653 398.528 501.789 396.76 502.061 394.856C486.285 426.136 470.781 445.448 455.549 452.792C450.109 455.512 444.669 456.872 439.229 456.872Z" fill="black"/>
</svg>
